<svg width="17" height="17" viewBox="0 0 17 17" fill="none" xmlns="http://www.w3.org/2000/svg">
<path d="M8.8125 0.353027C12.0291 0.353027 13.6375 0.353124 14.7959 1.11963C15.3132 1.46191 15.7564 1.90507 16.0986 2.42236C16.865 3.5808 16.8652 5.18924 16.8652 8.40576C16.8652 11.6223 16.8651 13.2307 16.0986 14.3892C15.7563 14.9065 15.3132 15.3496 14.7959 15.6919C13.6375 16.4584 12.0291 16.4585 8.8125 16.4585C5.59598 16.4585 3.98754 16.4583 2.8291 15.6919C2.31181 15.3496 1.86865 14.9064 1.52637 14.3892C0.759862 13.2307 0.759766 11.6224 0.759766 8.40576C0.759766 5.18916 0.759923 3.58081 1.52637 2.42236C1.86865 1.90506 2.3118 1.46191 2.8291 1.11963C3.98754 0.353185 5.59589 0.353027 8.8125 0.353027ZM8.8125 4.23682C6.51009 4.23682 4.64361 6.10336 4.64355 8.40576C4.64355 10.7082 6.51006 12.5747 8.8125 12.5747C11.1148 12.5746 12.9814 10.7081 12.9814 8.40576C12.9814 6.10345 11.1148 4.23695 8.8125 4.23682ZM8.8125 5.64697C10.3358 5.64711 11.5703 6.88243 11.5703 8.40576C11.5703 9.92914 10.3359 11.1644 8.8125 11.1646C7.28903 11.1646 6.05371 9.92923 6.05371 8.40576C6.05377 6.88234 7.28907 5.64697 8.8125 5.64697ZM13.1455 3.04834C12.6045 3.04834 12.166 3.48683 12.166 4.02783C12.1662 4.56867 12.6046 5.00732 13.1455 5.00732C13.6863 5.00725 14.1248 4.56862 14.125 4.02783C14.125 3.48687 13.6865 3.04841 13.1455 3.04834Z" fill="#071210"/>
</svg>
