<svg width="24" height="24" viewBox="0 0 24 24" fill="none" xmlns="http://www.w3.org/2000/svg">
<path d="M15 8L12 5L15 2L18 5L15 8ZM20 11L18 9L20 7L22 9L20 11ZM12.075 22C10.675 22 9.36248 21.7333 8.13748 21.2C6.91248 20.6667 5.84581 19.9458 4.93748 19.0375C4.02914 18.1292 3.30831 17.0625 2.77498 15.8375C2.24164 14.6125 1.97498 13.3 1.97498 11.9C1.97498 9.46667 2.74998 7.32083 4.29998 5.4625C5.84998 3.60417 7.82498 2.45 10.225 2C9.92498 3.65 10.0166 5.2625 10.5 6.8375C10.9833 8.4125 11.8166 9.79167 13 10.975C14.1833 12.1583 15.5625 12.9917 17.1375 13.475C18.7125 13.9583 20.325 14.05 21.975 13.75C21.5416 16.15 20.3916 18.125 18.525 19.675C16.6583 21.225 14.5083 22 12.075 22ZM12.075 20C13.5416 20 14.9 19.6333 16.15 18.9C17.4 18.1667 18.3833 17.1583 19.1 15.875C17.6666 15.7417 16.3083 15.3792 15.025 14.7875C13.7416 14.1958 12.5916 13.3917 11.575 12.375C10.5583 11.3583 9.74998 10.2083 9.14998 8.925C8.54998 7.64167 8.19164 6.28333 8.07498 4.85C6.79164 5.56667 5.78748 6.55417 5.06248 7.8125C4.33748 9.07083 3.97498 10.4333 3.97498 11.9C3.97498 14.15 4.76248 16.0625 6.33748 17.6375C7.91248 19.2125 9.82498 20 12.075 20Z" fill="#1F1F1F"/>
</svg>
