<svg width="17" height="13" viewBox="0 0 17 13" fill="none" xmlns="http://www.w3.org/2000/svg">
<path d="M10.761 0.00280946V0H11.5162L11.7921 0.0533797C11.9761 0.0880343 12.1431 0.133449 12.2932 0.189638C12.4432 0.245828 12.5884 0.311386 12.7288 0.3863C12.8692 0.461215 12.9965 0.537548 13.1108 0.615271C13.224 0.692068 13.3257 0.773542 13.4157 0.859694C13.5048 0.946787 13.6437 0.969263 13.8325 0.927121C14.0213 0.884979 14.2246 0.826444 14.4425 0.75153C14.6603 0.676616 14.8757 0.592332 15.0887 0.498679C15.3017 0.405025 15.4314 0.345563 15.4779 0.320278C15.5234 0.294066 15.5476 0.280019 15.5505 0.278136L15.5534 0.273922L15.5679 0.266898L15.5825 0.259875L15.597 0.252851L15.6115 0.245828L15.6144 0.241613L15.6188 0.238804L15.6231 0.235994L15.626 0.23178L15.6405 0.227566L15.6551 0.224757L15.6522 0.245828L15.6478 0.266898L15.6405 0.287969L15.6333 0.30904L15.626 0.323088L15.6188 0.337135L15.6115 0.358206C15.6067 0.372253 15.6018 0.390978 15.597 0.414395C15.5921 0.437812 15.5462 0.531451 15.459 0.695341C15.3719 0.85923 15.263 1.02545 15.1323 1.19402C15.0016 1.36259 14.8844 1.48994 14.7808 1.57611C14.6763 1.6632 14.6071 1.72407 14.5732 1.75872C14.5393 1.7943 14.4981 1.82707 14.4497 1.85705L14.3771 1.90341L14.3626 1.91043L14.3481 1.91745L14.3452 1.92167L14.3408 1.92448L14.3364 1.92729L14.3335 1.9315L14.319 1.93853L14.3045 1.94555L14.3016 1.94976L14.2972 1.95257L14.2929 1.95538L14.29 1.9596L14.2871 1.96381L14.2827 1.96662L14.2784 1.96943L14.2754 1.97364H14.3481L14.7547 1.88936C15.0258 1.83317 15.2848 1.76528 15.5316 1.68567L15.9237 1.55925L15.9673 1.5452L15.9891 1.53818L16.0036 1.53115L16.0181 1.52413L16.0327 1.51711L16.0472 1.51008L16.0762 1.50587L16.1053 1.50306V1.53115L16.098 1.53396L16.0907 1.53818L16.0879 1.54239L16.0835 1.5452L16.0791 1.54801L16.0762 1.55223L16.0733 1.55644L16.069 1.55925L16.0646 1.56206L16.0617 1.56627L16.0588 1.57049L16.0544 1.5733L16.0472 1.58734L16.0399 1.60139L16.0356 1.6042C16.0336 1.60701 15.9722 1.6866 15.8511 1.843C15.7301 2.00033 15.6648 2.07993 15.6551 2.08181C15.6454 2.08462 15.6318 2.09866 15.6144 2.12395C15.598 2.15016 15.4953 2.25459 15.3065 2.4372C15.1177 2.61982 14.9328 2.78229 14.7518 2.92465C14.5698 3.06793 14.4778 3.24398 14.4759 3.45282C14.473 3.66072 14.4618 3.89579 14.4425 4.158C14.4231 4.42022 14.3868 4.7035 14.3335 5.00786C14.2803 5.31222 14.198 5.65638 14.0867 6.04033C13.9753 6.42429 13.8398 6.79889 13.68 7.16412C13.5203 7.52935 13.3533 7.85711 13.179 8.14743C13.0047 8.43774 12.845 8.68357 12.6998 8.88491C12.5546 9.08625 12.4069 9.27589 12.2568 9.45382C12.1068 9.63176 11.917 9.83217 11.6876 10.055C11.4572 10.277 11.3313 10.3987 11.31 10.4203C11.2877 10.4409 11.1929 10.5177 11.0254 10.6507C10.8588 10.7846 10.6797 10.9185 10.488 11.0524C10.2973 11.1854 10.1221 11.2964 9.96232 11.3853C9.80257 11.4743 9.60992 11.5759 9.38433 11.6902C9.15973 11.8053 8.91671 11.9121 8.65531 12.0104C8.39391 12.1088 8.11798 12.2001 7.82754 12.2844C7.53709 12.3686 7.25633 12.4342 6.98524 12.481C6.71417 12.5278 6.40677 12.5676 6.06307 12.6004L5.54753 12.6496V12.6566H4.60358V12.6496L4.48014 12.6426C4.39785 12.6379 4.33008 12.6332 4.27683 12.6285C4.22359 12.6238 4.02269 12.5981 3.67415 12.5513C3.32561 12.5044 3.05211 12.4576 2.85364 12.4108C2.65518 12.364 2.35988 12.275 1.96778 12.1439C1.57567 12.0128 1.24021 11.8803 0.961378 11.7463C0.683522 11.6134 0.509255 11.5291 0.438574 11.4935C0.368867 11.4588 0.290447 11.4158 0.203313 11.3643L0.0726116 11.287L0.0697217 11.2828L0.0653505 11.28L0.0609938 11.2772L0.0580893 11.2729L0.043567 11.2659L0.0290447 11.2589L0.0261547 11.2547L0.0217835 11.2519L0.0174268 11.2491L0.0145223 11.2449L0.0116324 11.2406L0.00726116 11.2378H0V11.2097L0.0145223 11.2125L0.0290447 11.2168L0.0943951 11.2238C0.137962 11.2285 0.256566 11.2355 0.450192 11.2449C0.643833 11.2542 0.849556 11.2542 1.06739 11.2449C1.28523 11.2355 1.50791 11.2144 1.73542 11.1816C1.96294 11.1489 2.2316 11.0927 2.54141 11.0131C2.85123 10.9335 3.13586 10.8389 3.39533 10.7293C3.65383 10.6188 3.83777 10.5364 3.94718 10.4821C4.05561 10.4287 4.22116 10.3294 4.44383 10.1843L4.77785 9.96655L4.78075 9.96234L4.78511 9.95953L4.78948 9.95672L4.79237 9.9525L4.79527 9.94829L4.79963 9.94548L4.804 9.94267L4.80689 9.93846L4.82141 9.93424L4.83594 9.93143L4.83884 9.91739L4.8432 9.90334L4.84757 9.90053L4.85046 9.89631L4.73428 9.88929C4.65683 9.88461 4.58179 9.87992 4.50918 9.87524C4.43657 9.87057 4.32282 9.84949 4.16791 9.81203C4.01301 9.77457 3.84601 9.71838 3.66689 9.64346C3.48778 9.56855 3.31352 9.47957 3.14408 9.37656C2.97467 9.27356 2.85219 9.18785 2.77667 9.1195C2.70213 9.05206 2.60531 8.95655 2.48622 8.83293C2.36811 8.70839 2.26548 8.58055 2.17835 8.44944C2.09122 8.31834 2.00796 8.16708 1.92858 7.99572L1.80803 7.74006L1.80077 7.71898L1.79351 7.69791L1.78915 7.68387L1.78625 7.66982L1.80803 7.67263L1.82981 7.67684L1.98956 7.69791C2.09607 7.71196 2.26307 7.71664 2.49058 7.71196C2.7181 7.70728 2.87542 7.69791 2.96256 7.68387C3.04969 7.66982 3.10294 7.66045 3.1223 7.65577L3.15135 7.64875L3.18765 7.64172L3.22396 7.6347L3.22686 7.63049L3.23122 7.62768L3.23559 7.62487L3.23848 7.62065L3.20943 7.61363L3.18039 7.60661L3.15135 7.59958L3.1223 7.59256L3.09326 7.58554C3.0739 7.58086 3.04002 7.57149 2.9916 7.55744C2.9432 7.54339 2.8125 7.49188 2.5995 7.40292C2.38651 7.31396 2.21708 7.22733 2.09122 7.14305C1.96504 7.05852 1.84473 6.96607 1.73106 6.86631C1.61779 6.76517 1.49339 6.635 1.35784 6.4758C1.2223 6.3166 1.10129 6.13164 0.99478 5.92093C0.888287 5.71022 0.808414 5.50888 0.755161 5.3169C0.702122 5.12604 0.667129 4.93092 0.650615 4.73394L0.62446 4.43894L0.638982 4.44175L0.653505 4.44597L0.668027 4.45299L0.682549 4.46001L0.697072 4.46704L0.711594 4.47406L0.93669 4.57239C1.08676 4.63795 1.27313 4.69414 1.4958 4.74096C1.71849 4.78778 1.8516 4.81354 1.89516 4.81822L1.96051 4.82524H2.09122L2.08833 4.82103L2.08395 4.81822L2.0796 4.81541L2.07669 4.8112L2.0738 4.80698L2.06943 4.80417L2.06508 4.80136L2.06217 4.79715L2.04765 4.79012L2.03313 4.7831L2.03024 4.77889L2.02586 4.77608L2.02151 4.77327L2.0186 4.76905L2.00408 4.76203L1.98956 4.75501L1.98667 4.75079C1.98376 4.74891 1.94213 4.71895 1.86176 4.66089C1.78237 4.60189 1.69911 4.52557 1.61198 4.43192C1.52484 4.33827 1.43771 4.23993 1.35058 4.13693C1.26328 4.03368 1.18553 3.92322 1.11822 3.80681C1.05046 3.68976 0.978805 3.54084 0.903289 3.36011C0.828746 3.18031 0.772109 2.9991 0.733378 2.81648C0.694661 2.63387 0.672878 2.4536 0.668027 2.27566C0.663191 2.09772 0.668027 1.94555 0.682549 1.81912C0.697072 1.6927 0.726116 1.54988 0.769683 1.39068C0.81325 1.23148 0.87619 1.06292 0.958474 0.884979L1.08191 0.618081L1.08917 0.59701L1.09644 0.575939L1.10081 0.573129L1.1037 0.568915L1.1066 0.564701L1.11096 0.561891L1.11533 0.564701L1.11822 0.568915L1.12112 0.573129L1.12548 0.575939L1.12985 0.578748L1.13274 0.582962L1.13565 0.587177L1.14 0.589986L1.14726 0.604033L1.15453 0.618081L1.1589 0.62089L1.16179 0.625104L1.35784 0.835814C1.48854 0.976286 1.64345 1.13315 1.82255 1.3064C2.00167 1.47964 2.1009 1.56955 2.12026 1.57611C2.13963 1.58359 2.16383 1.60513 2.19287 1.64072C2.22192 1.67538 2.31874 1.75826 2.48332 1.88936C2.64791 2.02046 2.86332 2.17265 3.12956 2.3459C3.39581 2.51914 3.6911 2.69006 4.01542 2.85862C4.33977 3.02719 4.6883 3.17936 5.06103 3.31516C5.43378 3.45095 5.69518 3.53992 5.84524 3.58206C5.99531 3.6242 6.25186 3.67804 6.61492 3.7436C6.97798 3.80916 7.25149 3.8513 7.43543 3.87003C7.61939 3.88875 7.74525 3.89953 7.81301 3.90234L7.91467 3.90515L7.91178 3.88407L7.90741 3.863L7.87836 3.68741C7.859 3.57036 7.84932 3.40647 7.84932 3.19576C7.84932 2.98505 7.86627 2.79073 7.90015 2.6128C7.93404 2.43486 7.98487 2.25459 8.05263 2.07197C8.12041 1.88936 8.18673 1.74279 8.25159 1.63229C8.31743 1.52273 8.40359 1.39771 8.51009 1.25723C8.61659 1.11676 8.75455 0.971609 8.92397 0.821766C9.0934 0.671924 9.28703 0.538475 9.50486 0.421419C9.7227 0.304363 9.9236 0.215387 10.1075 0.15452C10.2915 0.0936533 10.4464 0.0538433 10.5723 0.0351182C10.6981 0.0163932 10.761 0.00561891 10.761 0.00280946Z" fill="#071210"/>
</svg>
